<svg width="90" height="90" viewBox="0 0 90 90" fill="none" xmlns="http://www.w3.org/2000/svg">
<circle cx="45" cy="45" r="45" fill="#38C976"/>
<path d="M57.2084 26.9999C59.2296 26.9999 60.9198 28.4822 61.1974 30.4378L61.2294 30.7504L62.992 58.7503C63.1307 60.953 61.4515 62.83 59.2713 62.989L58.971 62.9999H31.0288C28.8059 62.9999 27.0239 61.2187 27 59.0485L27.0078 58.7503L28.7704 30.7504C28.8965 28.7477 30.4919 27.1653 32.4752 27.0121L32.7914 26.9999H57.2084ZM51.043 34.9999C50.0099 34.9999 49.1585 35.772 49.0422 36.7667L49.0286 36.9999C49.0286 39.2091 47.2249 40.9999 44.9998 40.9999C42.7746 40.9999 40.9709 39.2091 40.9709 36.9999C40.9709 35.8954 40.069 34.9999 38.9565 34.9999C37.8439 34.9999 36.942 35.8954 36.942 36.9999C36.942 41.4181 40.5496 44.9999 44.9998 44.9999C49.4498 44.9999 53.0575 41.4181 53.0575 36.9999C53.0575 35.8954 52.1556 34.9999 51.043 34.9999Z" fill="white"/>
</svg>
