<svg width="24" height="18" viewBox="0 0 24 18" fill="none" xmlns="http://www.w3.org/2000/svg">
<path d="M20.3162 1.49586C18.7788 0.802149 17.1454 0.297628 15.4287 0.0012223C15.3966 0.0012223 15.3646 0.0012222 15.3518 0.0390613C15.1404 0.411145 14.9034 0.89044 14.7433 1.26883C12.8856 0.99765 11.06 0.99765 9.2536 1.26883C9.08706 0.877827 8.85005 0.404839 8.61304 0.0390613C8.59382 0.0138352 8.5682 -0.00508421 8.53617 0.0012223C7.06287 0.291322 5.1796 0.821068 3.66786 1.49586C3.65505 1.49586 3.64224 1.50848 3.63583 1.52109C0.497058 6.12484 -0.335678 10.5394 0.112718 14.954C0.112718 14.9729 0.12553 14.9981 0.144747 15.017C2.19456 16.5054 4.18032 17.4135 6.14045 18C6.17248 18 6.20451 18 6.22372 17.9748C6.68493 17.3567 7.09489 16.7009 7.45361 16.0071C7.47283 15.9693 7.45361 15.9189 7.40877 15.9062C6.7682 15.654 6.12764 15.3639 5.53191 15.0233C5.48707 14.9981 5.48067 14.9287 5.53191 14.8972C5.66002 14.8026 5.78814 14.708 5.90344 14.6134C5.92266 14.5945 5.95468 14.5945 5.98031 14.6008C9.91339 16.3666 14.1796 16.3666 18.023 14.6008C18.0486 14.5882 18.0806 14.5945 18.0998 14.6071C18.2215 14.708 18.3432 14.8026 18.4714 14.8972C18.5162 14.9287 18.5098 14.9981 18.4714 15.0233C17.8756 15.3702 17.2543 15.654 16.5945 15.9062C16.5497 15.9252 16.5304 15.9693 16.5561 16.0134C16.9148 16.7072 17.3311 17.3567 17.7731 17.9685C17.7924 17.9937 17.8244 18.0063 17.8564 17.9937C19.8165 17.3946 21.8087 16.4927 23.8649 15.0107C23.8841 14.9981 23.897 14.9792 23.897 14.9476C24.3966 9.84568 23.0578 5.42482 20.3482 1.51478C20.3482 1.50217 20.329 1.48956 20.3162 1.48956V1.49586ZM8.01731 12.28C6.80023 12.28 5.83938 11.2079 5.83938 9.88352C5.83938 8.55915 6.80023 7.48705 8.01731 7.48705C9.23439 7.48705 10.1952 8.55915 10.1952 9.88352C10.1952 11.2079 9.23439 12.28 8.01731 12.28ZM16.0244 12.28C14.8073 12.28 13.8465 11.2079 13.8465 9.88352C13.8465 8.55915 14.8073 7.48705 16.0244 7.48705C17.2415 7.48705 18.2023 8.55915 18.2023 9.88352C18.2023 11.2079 17.2415 12.28 16.0244 12.28Z" fill="#8F9CA9"/>
</svg>
