<svg width="169" height="40" viewBox="0 0 169 40" fill="none" xmlns="http://www.w3.org/2000/svg">
<path d="M60.1939 33.6134C57.9298 33.6134 55.9028 33.1112 54.113 32.1068C52.3448 31.0806 50.954 29.6723 49.9405 27.8819C48.9486 26.0696 48.4526 24.0171 48.4526 21.7245C48.4526 19.4319 48.9486 17.3904 49.9405 15.6C50.954 13.7877 52.3448 12.3794 54.113 11.375C55.9028 10.3706 57.9298 9.86841 60.1939 9.86841C62.4797 9.86841 64.5066 10.3706 66.2748 11.375C68.0646 12.3794 69.4555 13.7877 70.4474 15.6C71.4609 17.3904 71.9676 19.4319 71.9676 21.7245C71.9676 24.0171 71.4609 26.0696 70.4474 27.8819C69.4555 29.6723 68.0646 31.0806 66.2748 32.1068C64.5066 33.1112 62.4797 33.6134 60.1939 33.6134ZM60.1939 29.4212C61.574 29.4212 62.7923 29.1046 63.8489 28.4714C64.9271 27.8163 65.7681 26.9102 66.3719 25.753C66.9756 24.5739 67.2775 23.2311 67.2775 21.7245C67.2775 20.2398 66.9756 18.9188 66.3719 17.7616C65.7681 16.5825 64.9271 15.6764 63.8489 15.0432C62.7923 14.3881 61.574 14.0606 60.1939 14.0606C58.8139 14.0606 57.5848 14.3881 56.5066 15.0432C55.45 15.6764 54.6198 16.5825 54.016 17.7616C53.4338 18.9188 53.1427 20.2398 53.1427 21.7245C53.1427 23.2311 53.4338 24.5739 54.016 25.753C54.6198 26.9102 55.45 27.8163 56.5066 28.4714C57.5848 29.1046 58.8139 29.4212 60.1939 29.4212Z" fill="#36414C"/>
<path d="M75.1627 33.2859V16.124H78.5589L79.3029 18.6459C79.8635 17.7725 80.5859 17.0847 81.47 16.5825C82.3757 16.0585 83.3352 15.7965 84.3487 15.7965C85.5563 15.7965 86.656 16.1131 87.6479 16.7463C88.6399 17.3576 89.4161 18.2201 89.9768 19.3337C90.559 20.4254 90.8501 21.6481 90.8501 23.0018V33.2859H86.4835V23.5914C86.4835 22.456 86.1601 21.528 85.5132 20.8075C84.8662 20.0869 84.0361 19.7267 83.0226 19.7267C81.966 19.7267 81.1142 20.0869 80.4673 20.8075C79.842 21.5062 79.5293 22.4342 79.5293 23.5914V33.2859H75.1627Z" fill="#36414C"/>
<path d="M106.432 16.124H110.831L104.039 34.8907C103.37 36.6811 102.54 37.9803 101.548 38.7882C100.556 39.596 99.2194 40 97.5375 40H94.8852L94.5294 35.9715H97.8609C98.4431 35.9715 98.896 35.8405 99.2194 35.5785C99.5429 35.3165 99.834 34.8361 100.093 34.1374L92.5887 16.124H97.2464L101.807 27.5216H102.389L106.432 16.124Z" fill="#36414C"/>
<path d="M116.197 33.2859H111.378L116.553 24.5084L111.96 16.124H116.779L119.626 21.528H120.305L123.248 16.124H128.003L123.41 24.2792L128.65 33.2859H123.734L120.402 27.1613H119.723L116.197 33.2859Z" fill="#36414C"/>
<path d="M148.775 33.2859H143.47L137.648 25.1307H135.513V33.2859H130.985V10.1959H139.524C141.184 10.1959 142.651 10.5125 143.923 11.1457C145.217 11.7789 146.219 12.6632 146.931 13.7986C147.642 14.934 147.998 16.2222 147.998 17.6633C147.998 19.3664 147.513 20.8402 146.543 22.0848C145.572 23.3294 144.246 24.2027 142.564 24.7049L148.775 33.2859ZM135.513 14.2899V21.0367H139.524C140.71 21.0367 141.648 20.7311 142.338 20.1197C143.028 19.4865 143.373 18.6677 143.373 17.6633C143.373 16.6589 143.028 15.8511 142.338 15.2397C141.648 14.6065 140.71 14.2899 139.524 14.2899H135.513Z" fill="#36414C"/>
<path d="M152.148 33.2859V10.1959H160.299C161.981 10.1959 163.48 10.5344 164.795 11.2112C166.11 11.8881 167.135 12.827 167.868 14.0279C168.623 15.2288 169 16.6043 169 18.1546C169 19.683 168.623 21.0477 167.868 22.2486C167.135 23.4495 166.1 24.3993 164.763 25.098C163.447 25.7748 161.959 26.1133 160.299 26.1133H156.676V33.2859H152.148ZM160.299 22.0193C161.55 22.0193 162.542 21.6699 163.275 20.9712C164.008 20.2507 164.375 19.3118 164.375 18.1546C164.375 16.9974 164.008 16.0694 163.275 15.3707C162.542 14.6502 161.55 14.2899 160.299 14.2899H156.676V22.0193H160.299Z" fill="#36414C"/>
<path d="M60.1939 33.6134C57.9298 33.6134 55.9028 33.1112 54.113 32.1068C52.3448 31.0806 50.954 29.6723 49.9405 27.8819C48.9486 26.0696 48.4526 24.0171 48.4526 21.7245C48.4526 19.4319 48.9486 17.3904 49.9405 15.6C50.954 13.7877 52.3448 12.3794 54.113 11.375C55.9028 10.3706 57.9298 9.86841 60.1939 9.86841C62.4797 9.86841 64.5066 10.3706 66.2748 11.375C68.0646 12.3794 69.4555 13.7877 70.4474 15.6C71.4609 17.3904 71.9676 19.4319 71.9676 21.7245C71.9676 24.0171 71.4609 26.0696 70.4474 27.8819C69.4555 29.6723 68.0646 31.0806 66.2748 32.1068C64.5066 33.1112 62.4797 33.6134 60.1939 33.6134ZM60.1939 29.4212C61.574 29.4212 62.7923 29.1046 63.8489 28.4714C64.9271 27.8163 65.7681 26.9102 66.3719 25.753C66.9756 24.5739 67.2775 23.2311 67.2775 21.7245C67.2775 20.2398 66.9756 18.9188 66.3719 17.7616C65.7681 16.5825 64.9271 15.6764 63.8489 15.0432C62.7923 14.3881 61.574 14.0606 60.1939 14.0606C58.8139 14.0606 57.5848 14.3881 56.5066 15.0432C55.45 15.6764 54.6198 16.5825 54.016 17.7616C53.4338 18.9188 53.1427 20.2398 53.1427 21.7245C53.1427 23.2311 53.4338 24.5739 54.016 25.753C54.6198 26.9102 55.45 27.8163 56.5066 28.4714C57.5848 29.1046 58.8139 29.4212 60.1939 29.4212Z" fill="#36414C"/>
<path d="M75.1627 33.2859V16.124H78.5589L79.3029 18.6459C79.8635 17.7725 80.5859 17.0847 81.47 16.5825C82.3757 16.0585 83.3352 15.7965 84.3487 15.7965C85.5563 15.7965 86.656 16.1131 87.6479 16.7463C88.6399 17.3576 89.4161 18.2201 89.9768 19.3337C90.559 20.4254 90.8501 21.6481 90.8501 23.0018V33.2859H86.4835V23.5914C86.4835 22.456 86.1601 21.528 85.5132 20.8075C84.8662 20.0869 84.0361 19.7267 83.0226 19.7267C81.966 19.7267 81.1142 20.0869 80.4673 20.8075C79.842 21.5062 79.5293 22.4342 79.5293 23.5914V33.2859H75.1627Z" fill="#36414C"/>
<path d="M106.432 16.124H110.831L104.039 34.8907C103.37 36.6811 102.54 37.9803 101.548 38.7882C100.556 39.596 99.2194 40 97.5375 40H94.8852L94.5294 35.9715H97.8609C98.4431 35.9715 98.896 35.8405 99.2194 35.5785C99.5429 35.3165 99.834 34.8361 100.093 34.1374L92.5887 16.124H97.2464L101.807 27.5216H102.389L106.432 16.124Z" fill="#36414C"/>
<path d="M116.197 33.2859H111.378L116.553 24.5084L111.96 16.124H116.779L119.626 21.528H120.305L123.248 16.124H128.003L123.41 24.2792L128.65 33.2859H123.734L120.402 27.1613H119.723L116.197 33.2859Z" fill="#36414C"/>
<path d="M148.775 33.2859H143.47L137.648 25.1307H135.513V33.2859H130.985V10.1959H139.524C141.184 10.1959 142.651 10.5125 143.923 11.1457C145.217 11.7789 146.219 12.6632 146.931 13.7986C147.642 14.934 147.998 16.2222 147.998 17.6633C147.998 19.3664 147.513 20.8402 146.543 22.0848C145.572 23.3294 144.246 24.2027 142.564 24.7049L148.775 33.2859ZM135.513 14.2899V21.0367H139.524C140.71 21.0367 141.648 20.7311 142.338 20.1197C143.028 19.4865 143.373 18.6677 143.373 17.6633C143.373 16.6589 143.028 15.8511 142.338 15.2397C141.648 14.6065 140.71 14.2899 139.524 14.2899H135.513Z" fill="#36414C"/>
<path d="M152.148 33.2859V10.1959H160.299C161.981 10.1959 163.48 10.5344 164.795 11.2112C166.11 11.8881 167.135 12.827 167.868 14.0279C168.623 15.2288 169 16.6043 169 18.1546C169 19.683 168.623 21.0477 167.868 22.2486C167.135 23.4495 166.1 24.3993 164.763 25.098C163.447 25.7748 161.959 26.1133 160.299 26.1133H156.676V33.2859H152.148ZM160.299 22.0193C161.55 22.0193 162.542 21.6699 163.275 20.9712C164.008 20.2507 164.375 19.3118 164.375 18.1546C164.375 16.9974 164.008 16.0694 163.275 15.3707C162.542 14.6502 161.55 14.2899 160.299 14.2899H156.676V22.0193H160.299Z" fill="#36414C"/>
<path fill-rule="evenodd" clip-rule="evenodd" d="M34.9623 24.8614C42.1226 15.6674 36.712 2.45171 25.2232 1.07316L17.2208 0.112951C5.73199 -1.2656 -3.21846 10.2269 1.11002 20.7995L4.12494 28.1636C8.45341 38.7361 22.8145 40.4593 29.9748 31.2653L34.9623 24.8614ZM27.0281 20.8695C30.4287 16.5031 27.8591 10.2267 22.4028 9.57199L18.6023 9.11597C13.146 8.46127 8.89525 13.9193 10.9509 18.9404L12.3828 22.4378C14.4385 27.459 21.2588 28.2773 24.6595 23.9109L27.0281 20.8695Z" fill="#FFBD5A"/>
</svg>
