<svg width="167" height="32" viewBox="0 0 167 32" fill="none" xmlns="http://www.w3.org/2000/svg">
<path d="M165.526 14.878C166.507 15.9261 167 17.347 167 19.1473V28.618H163.363V20.221C163.363 19.1601 163.066 18.3243 162.471 17.7135C161.877 17.1027 161.073 16.7941 160.055 16.7941C158.853 16.8133 157.898 17.2313 157.196 18.0414C156.494 18.8515 156.14 19.8931 156.14 21.1597V28.618H152.528V7.57404H156.14V16.3376C157.158 14.3508 158.948 13.3414 161.504 13.3028C163.199 13.3028 164.546 13.8236 165.526 14.878ZM144.495 16.5626C143.294 16.5626 142.313 16.9805 141.567 17.8099C140.821 18.6458 140.441 19.7195 140.441 21.044C140.441 22.4071 140.821 23.5001 141.567 24.3359C142.32 25.1654 143.294 25.5833 144.502 25.5833C146.279 25.5833 147.614 24.9853 148.506 23.7959L150.757 25.699C150.093 26.6827 149.182 27.4671 148.12 27.9687C147.026 28.4959 145.761 28.7595 144.312 28.7595C142.851 28.7595 141.548 28.438 140.41 27.7951C139.29 27.1714 138.367 26.2262 137.759 25.0882C137.127 23.9245 136.811 22.5871 136.811 21.0761C136.811 19.5459 137.133 18.1893 137.772 17.0191C138.386 15.8682 139.315 14.9295 140.441 14.2994C141.58 13.6564 142.889 13.3349 144.375 13.3349C145.729 13.3349 146.937 13.5728 148 14.0551C149.062 14.5373 149.929 15.2252 150.599 16.1125L148.404 18.2407C147.386 17.122 146.089 16.5626 144.495 16.5626ZM134.502 13.4442V28.618H130.89V26.207C130.378 27.0171 129.663 27.6793 128.822 28.123C127.981 28.5666 127.013 28.7916 125.919 28.7916C124.508 28.7916 123.275 28.4637 122.206 27.8143C121.143 27.165 120.309 26.2455 119.72 25.0625C119.132 23.8794 118.835 22.5228 118.835 20.9926C118.835 19.4816 119.132 18.1443 119.727 16.9805C120.315 15.8168 121.15 14.9166 122.212 14.2737C123.275 13.6307 124.502 13.3092 125.894 13.3092C126.988 13.3092 127.962 13.5343 128.809 13.9779C129.657 14.4215 130.378 15.0774 130.89 15.8939V13.4571L134.502 13.4442ZM129.581 24.5738C130.34 23.828 130.776 22.8379 130.89 21.6098V20.5361C130.776 19.3016 130.346 18.3179 129.587 17.572C128.828 16.8262 127.867 16.4533 126.697 16.4533C125.457 16.4533 124.445 16.8841 123.667 17.7456C122.889 18.6072 122.491 19.7195 122.472 21.0761C122.491 22.4392 122.889 23.5451 123.667 24.4067C124.445 25.2682 125.457 25.699 126.697 25.699C127.861 25.699 128.822 25.3261 129.581 24.5738ZM115.198 15.3988C116.393 16.7812 116.988 18.7165 116.988 21.2112C116.988 21.6998 116.975 22.0727 116.963 22.3171H105.989C106.229 23.3972 106.722 24.2395 107.475 24.8567C108.221 25.474 109.145 25.7762 110.239 25.7762C110.985 25.7762 111.732 25.6283 112.421 25.3325C113.111 25.0496 113.731 24.6188 114.243 24.0723L116.185 26.1427C115.432 26.9849 114.508 27.6407 113.471 28.0715C112.409 28.528 111.226 28.7531 109.929 28.7531C108.411 28.7531 107.07 28.4316 105.913 27.7886C104.781 27.1714 103.844 26.2262 103.231 25.0818C102.598 23.918 102.289 22.5807 102.289 21.0697C102.289 19.5588 102.605 18.215 103.25 17.0448C103.87 15.8939 104.8 14.9423 105.932 14.3058C107.083 13.65 108.386 13.3285 109.847 13.3285C112.219 13.3285 114.002 14.0229 115.198 15.3988ZM113.686 19.8545C113.648 18.7358 113.288 17.8485 112.605 17.1863C111.922 16.524 111.011 16.1897 109.879 16.1897C108.822 16.1897 107.937 16.5176 107.222 17.167C106.507 17.8164 106.071 18.7101 105.9 19.8481H113.686V19.8545ZM98.3607 14.1129C99.2209 13.5921 100.227 13.3221 101.378 13.3028V16.8776C99.8407 16.7812 98.6137 17.1477 97.6965 17.9707C96.7794 18.7937 96.3177 19.906 96.3177 21.3012V28.618H92.7061V13.4442H96.3177V16.3633C96.8237 15.3795 97.5005 14.6273 98.3607 14.1129ZM89.999 27.6793C88.8162 28.4187 87.5702 28.7852 86.2735 28.7852C84.9959 28.7852 83.9459 28.3994 83.1363 27.6343C82.3204 26.8692 81.9156 25.7376 81.9156 24.2459V9.89512L85.5019 9.45791V14.0615H89.7523V16.7555H85.5019V23.5965C85.5019 24.2974 85.6284 24.7924 85.8877 25.0818C86.147 25.3775 86.5329 25.519 87.0515 25.519C87.6081 25.519 88.3102 25.3132 89.1641 24.8953L89.999 27.6793ZM75.2237 13.4442H78.81V21.9506C78.81 26.9142 75.4134 28.7595 71.9663 28.7595C68.5191 28.7595 65.1289 26.9142 65.1289 21.9506V13.4442H68.7152V22.0792C68.7152 23.9823 70.1067 25.5254 71.9726 25.5254C73.8385 25.5254 75.23 23.9823 75.23 22.0792L75.2237 13.4442ZM57.697 9.84368C59.2466 10.6988 60.5369 11.9654 61.4351 13.5021C62.3459 15.0516 62.795 16.7748 62.795 18.6651C62.795 20.5554 62.3396 22.2785 61.4351 23.8409C60.5369 25.3904 59.2466 26.6699 57.697 27.5443C56.1094 28.4509 54.3574 28.9074 52.4282 28.9074C50.4991 28.9074 48.7471 28.4509 47.1658 27.5443C45.6162 26.6699 44.3259 25.3904 43.4277 23.8409C42.5232 22.2785 42.0678 20.5554 42.0678 18.6651C42.0678 16.7748 42.5232 15.0516 43.4277 13.5021C44.3259 11.959 45.6162 10.6988 47.1658 9.84368C48.7471 8.9564 50.5054 8.51276 52.4282 8.51276C54.3574 8.50633 56.1157 8.94997 57.697 9.84368ZM49.1835 12.8077C48.1778 13.3864 47.3429 14.2287 46.7673 15.2445C46.1728 16.2797 45.8755 17.4177 45.8755 18.6651C45.8755 19.9124 46.1791 21.0569 46.78 22.0985C47.3619 23.1208 48.1968 23.9695 49.1961 24.5674C50.2082 25.1718 51.3024 25.474 52.4915 25.474C53.6363 25.4804 54.7622 25.1654 55.7426 24.5674C56.7356 23.9695 57.5515 23.1208 58.1208 22.0985C58.709 21.0504 59.0063 19.8674 58.9936 18.6651C58.9936 17.4177 58.7027 16.2797 58.1208 15.2445C57.5579 14.2351 56.7356 13.3928 55.7426 12.8077C54.7559 12.2162 53.6363 11.9076 52.4915 11.914C51.3277 11.9076 50.1892 12.2162 49.1835 12.8077ZM14.8512 0C19.9681 0 27.6973 1.60096 31.29 5.27225C32.2008 6.20454 33.3962 8.02411 33.3962 10.6988C33.3962 15.4438 29.6455 22.7285 25.5089 26.9592C23.371 29.1453 19.9681 32 15.3888 32C10.9107 32 7.49517 28.9009 6.50846 27.8851C2.71344 24.0145 0 18.1378 0 12.6663C0 9.20715 0.967731 6.18525 3.42817 3.67129C5.70518 1.35021 9.63303 0 14.8512 0ZM21.1826 18.9351C22.9093 17.1734 23.3773 15.0002 23.3773 13.8043C23.3773 12.9363 23.156 11.6697 22.0934 10.5831C20.4678 8.91782 18.6589 8.44846 16.6981 8.44846C14.2124 8.44846 12.5426 9.25216 11.4293 10.3838C10.5565 11.2839 9.80381 12.647 9.80381 14.5951C9.80381 16.5369 10.8221 18.4143 11.9227 19.5459C12.9474 20.5875 14.5539 21.3591 16.1668 21.3591C17.786 21.3591 19.4558 20.6968 21.1826 18.9351Z" fill="#36414C"/>
</svg>
