<svg width="332" height="292" viewBox="0 0 332 292" fill="none" xmlns="http://www.w3.org/2000/svg">
<path fill-rule="evenodd" clip-rule="evenodd" d="M187.559 93.0009C191.093 93.0009 194.621 93.4974 197.975 94.6188C218.645 101.313 226.092 123.908 219.871 143.657C216.343 153.75 210.575 162.96 203.021 170.486C192.207 180.919 180.341 190.18 167.567 198.158L166.168 199L164.712 198.102C151.893 190.18 139.96 180.919 129.045 170.43C121.542 162.905 115.768 153.75 112.184 143.657C105.856 123.908 113.304 101.313 134.197 94.5016C135.821 93.9437 137.496 93.5532 139.176 93.3356H139.848C141.421 93.1069 142.984 93.0009 144.552 93.0009H145.168C148.696 93.1069 152.112 93.7206 155.421 94.8419H155.752C155.976 94.9479 156.144 95.0651 156.256 95.1711C157.493 95.5672 158.664 96.0135 159.784 96.6272L161.912 97.5756C162.426 97.8488 163.003 98.2663 163.502 98.627C163.818 98.8556 164.102 99.0615 164.32 99.1935C164.411 99.2472 164.504 99.3012 164.597 99.3556C165.078 99.6349 165.578 99.9258 165.999 100.248C172.221 95.5114 179.775 92.9451 187.559 93.0009ZM202.455 133.169C204.751 133.108 206.711 131.272 206.879 128.923V128.26C207.047 120.444 202.293 113.364 195.063 110.63C192.767 109.844 190.247 111.077 189.407 113.42C188.623 115.763 189.855 118.329 192.207 119.16C195.797 120.499 198.199 124.02 198.199 127.919V128.092C198.093 129.37 198.479 130.603 199.263 131.551C200.047 132.5 201.223 133.052 202.455 133.169Z" fill="url(#paint0_linear_398_133)"/>
<defs>
<linearGradient id="paint0_linear_398_133" x1="222" y1="353.673" x2="63.0205" y2="248.157" gradientUnits="userSpaceOnUse">
<stop stop-color="#FF005C"/>
<stop offset="1" stop-color="#FF5B83"/>
</linearGradient>
</defs>
</svg>
