<svg width="332" height="292" viewBox="0 0 332 292" fill="none" xmlns="http://www.w3.org/2000/svg">
<path d="M155.969 93.1635C151.669 96.3237 123 118.762 123 155.263C123 161.007 124.112 166.695 126.273 172.002C128.434 177.308 131.601 182.13 135.594 186.192C139.587 190.253 144.328 193.475 149.545 195.673C154.611 197.808 160.03 198.937 165.511 199C152.166 198.735 141.429 187.648 141.429 174.011C141.429 172.777 141.517 171.563 141.686 170.377C141.694 170.306 141.702 170.235 141.713 170.164C143.773 156.081 156.511 144.125 162.671 139.083C164.639 137.472 167.362 137.472 169.33 139.083C175.49 144.125 188.227 156.081 190.287 170.164C190.298 170.235 190.306 170.306 190.314 170.377C190.483 171.563 190.571 172.777 190.571 174.011C190.571 187.648 179.834 198.735 166.489 199C171.97 198.937 177.389 197.808 182.455 195.673C187.672 193.475 192.413 190.253 196.406 186.192C200.399 182.13 203.566 177.308 205.727 172.002C207.815 166.875 208.923 161.392 208.996 155.847C208.999 155.775 209 155.703 209 155.631L209 155.433L209 155.264C208.838 128.766 191.213 114.304 188 111.887C187.698 111.661 187.298 111.663 186.997 111.89C185.708 112.859 182.119 115.752 178.265 120.569C177.826 121.119 176.962 121.014 176.665 120.373C169.424 104.786 159.392 95.3251 157.023 93.2241C156.717 92.953 156.298 92.9219 155.969 93.1635Z" fill="url(#paint0_linear_398_136)"/>
<defs>
<linearGradient id="paint0_linear_398_136" x1="209" y1="353.673" x2="69.4076" y2="282.532" gradientUnits="userSpaceOnUse">
<stop stop-color="#0075FF"/>
<stop offset="1" stop-color="#5BA7FF"/>
</linearGradient>
</defs>
</svg>
