<svg width="332" height="292" viewBox="0 0 332 292" fill="none" xmlns="http://www.w3.org/2000/svg">
<path fill-rule="evenodd" clip-rule="evenodd" d="M208.685 146.005C208.685 150.434 212.36 154.038 216.875 154.038C219.152 154.038 221 155.851 221 158.084V172.655C221 184.977 210.781 195 198.219 195H133.787C121.225 195 111 184.977 111 172.655V158.084C111 155.851 112.848 154.038 115.125 154.038C119.646 154.038 123.32 150.434 123.32 146.005C123.32 141.69 119.794 138.442 115.125 138.442C114.03 138.442 112.986 138.016 112.21 137.255C111.434 136.495 111 135.464 111 134.396L111.011 119.35C111.011 107.029 121.23 97 133.792 97H198.208C210.77 97 220.995 107.029 220.995 119.35L221 133.927C221 134.995 220.565 136.031 219.796 136.786C219.02 137.547 217.975 137.973 216.875 137.973C212.36 137.973 208.685 141.576 208.685 146.005ZM178.386 149.529L184.87 143.336C185.998 142.267 186.388 140.692 185.899 139.236C185.415 137.779 184.15 136.743 182.621 136.533L173.661 135.249L169.652 127.286C168.964 125.916 167.567 125.064 166.011 125.058H166C164.449 125.058 163.052 125.911 162.353 127.281L158.344 135.249L149.401 136.527C147.855 136.743 146.59 137.779 146.101 139.236C145.617 140.692 146.007 142.267 147.129 143.336L153.614 149.529L152.085 158.284C151.821 159.795 152.442 161.294 153.707 162.195C154.422 162.697 155.253 162.956 156.094 162.956C156.738 162.956 157.387 162.8 157.981 162.492L166 158.36L174.002 162.481C175.388 163.21 177.033 163.096 178.292 162.19C179.563 161.294 180.184 159.795 179.92 158.284L178.386 149.529Z" fill="url(#paint0_linear_398_129)"/>
<defs>
<linearGradient id="paint0_linear_398_129" x1="221" y1="338" x2="70.7639" y2="232.073" gradientUnits="userSpaceOnUse">
<stop stop-color="#FF4D00"/>
<stop offset="1" stop-color="#FFBE5B"/>
</linearGradient>
</defs>
</svg>
