<svg width="332" height="292" viewBox="0 0 332 292" fill="none" xmlns="http://www.w3.org/2000/svg">
<path d="M199.134 158.939C197.684 160.339 197.018 162.364 197.348 164.35L202.326 191.797C202.746 194.123 201.76 196.477 199.806 197.821C197.891 199.216 195.343 199.383 193.255 198.268L168.456 185.381C167.593 184.924 166.636 184.678 165.656 184.65H164.139C163.612 184.729 163.097 184.896 162.627 185.152L137.822 198.1C136.596 198.714 135.207 198.932 133.847 198.714C130.532 198.089 128.32 194.943 128.863 191.624L133.847 164.177C134.177 162.174 133.511 160.138 132.06 158.716L111.841 139.191C110.15 137.556 109.563 135.102 110.335 132.887C111.086 130.678 113.001 129.065 115.313 128.703L143.141 124.681C145.258 124.463 147.117 123.18 148.069 121.283L160.331 96.2356C160.622 95.6777 160.997 95.1645 161.451 94.7294L161.955 94.3389C162.218 94.0488 162.52 93.8089 162.856 93.6136L163.467 93.3905L164.419 93H166.776C168.881 93.2176 170.735 94.4727 171.703 96.3471L184.128 121.283C185.024 123.108 186.765 124.374 188.775 124.681L216.604 128.703C218.955 129.038 220.921 130.655 221.699 132.887C222.433 135.124 221.8 137.578 220.075 139.191L199.134 158.939Z" fill="url(#paint0_linear_398_130)"/>
<defs>
<linearGradient id="paint0_linear_398_130" x1="222" y1="353.673" x2="63.0205" y2="248.157" gradientUnits="userSpaceOnUse">
<stop stop-color="#8FFF00"/>
<stop offset="1" stop-color="#F2FF5B"/>
</linearGradient>
</defs>
</svg>
